<?xml version="1.0" encoding="iso-8859-1"?>
<!-- Generator: Adobe Illustrator 19.0.0, SVG Export Plug-In . SVG Version: 6.00 Build 0)  -->
<svg version="1.1" id="Capa_1" xmlns="http://www.w3.org/2000/svg" xmlns:xlink="http://www.w3.org/1999/xlink" x="0px" y="0px"
	 viewBox="0 0 512 512" style="enable-background:new 0 0 512 512;" xml:space="preserve">
<path style="fill:#FF7452;" d="M256,337l-30,135l120-45C346,377.294,305.706,337,256,337z"/>
<g>
	<path style="fill:#FB9D46;" d="M166,427l90,45V337C206.294,337,166,377.294,166,427z"/>
	<path style="fill:#FB9D46;" d="M196,262c-57.897,0-105-47.103-105-105V45c0-8.271,6.729-15,15-15s15,6.729,15,15l30,30V45
		c0-24.813-20.187-45-45-45S61,20.187,61,45v112c0,74.439,60.561,135,135,135h7.5l52.5,15v-45H196z"/>
</g>
<path style="fill:#FF7452;" d="M406,0c-24.813,0-45,20.187-45,45v30l30-30c0-8.271,6.729-15,15-15s15,6.729,15,15v112
	c0,57.897-47.103,105-105,105h-60v45l52.5-15h7.5c74.439,0,135-60.561,135-135V45C451,20.187,430.813,0,406,0z"/>
<polygon style="fill:#FDBA4C;" points="391,105 391,45 256,45 216,145 "/>
<polygon style="fill:#FFD652;" points="256,45 121,45 121,105 256,145 "/>
<path style="fill:#FB9D46;" d="M256,105l-30,93.5l30,93.5c74.439,0,135-60.561,135-135v-52H256z"/>
<path style="fill:#FDBA4C;" d="M121,105v52c0,74.439,60.561,135,135,135V105H121z"/>
<polygon points="436,427 256,427 226,497 436,497 "/>
<g>
	<rect x="76" y="427" style="fill:#383838;" width="180" height="70"/>
	<polygon style="fill:#383838;" points="466,482 256,482 236,497 256,512 466,512 	"/>
</g>
<rect x="46" y="482" style="fill:#595959;" width="210" height="30"/>
<path style="fill:#FDBA4C;" d="M308.5,292H256l-22.5,30l22.5,30h52.5c16.569,0,30-13.431,30-30S325.069,292,308.5,292z"/>
<path style="fill:#FFD652;" d="M203.5,292c-16.569,0-30,13.431-30,30s13.431,30,30,30H256v-60H203.5z"/>
<g>
</g>
<g>
</g>
<g>
</g>
<g>
</g>
<g>
</g>
<g>
</g>
<g>
</g>
<g>
</g>
<g>
</g>
<g>
</g>
<g>
</g>
<g>
</g>
<g>
</g>
<g>
</g>
<g>
</g>
</svg>
